<?xml version="1.0" standalone="no"?>
<!DOCTYPE svg PUBLIC "-//W3C//DTD SVG 20010904//EN"
 "http://www.w3.org/TR/2001/REC-SVG-20010904/DTD/svg10.dtd">
<svg version="1.0" xmlns="http://www.w3.org/2000/svg"
 width="500.000000pt" height="500.000000pt" viewBox="0 0 500.000000 500.000000"
 preserveAspectRatio="xMidYMid meet">

<g transform="translate(0.000000,500.000000) scale(0.100000,-0.100000)"
fill="#000000" stroke="none">
<path d="M3461 3225 c-23 -30 -44 -61 -47 -69 -4 -10 17 -32 63 -65 37 -28 70
-51 73 -50 4 0 71 90 93 125 7 12 -110 114 -131 114 -5 0 -28 -25 -51 -55z"/>
<path d="M480 2740 l0 -440 215 0 215 0 0 440 0 440 -215 0 -215 0 0 -440z
m256 164 c18 -46 14 -112 -7 -124 -8 -6 -8 -13 0 -28 15 -29 14 -62 -4 -82
-14 -15 -13 -20 7 -45 l22 -28 -42 7 c-75 11 -147 40 -150 59 -5 26 24 21 85
-13 63 -36 66 -36 58 -9 -4 13 -1 27 10 39 21 24 14 57 -20 98 -14 17 -25 37
-25 46 0 26 29 18 36 -9 8 -32 20 -32 28 0 8 30 -7 92 -28 120 -20 26 -20 41
-2 25 8 -6 23 -31 32 -56z m-181 -127 c3 -12 -3 -51 -14 -87 -11 -35 -19 -65
-18 -65 1 -1 50 -17 110 -35 59 -18 107 -37 107 -40 0 -4 -48 8 -107 26 -58
19 -110 34 -115 34 -4 0 -8 -22 -8 -49 0 -34 6 -56 21 -75 25 -31 42 -33 69
-6 15 15 20 16 20 5 0 -8 -9 -19 -19 -25 -85 -45 -129 68 -80 206 11 32 19 76
17 97 -4 40 8 51 17 14z"/>
<path d="M680 2821 c0 -6 4 -13 10 -16 6 -3 7 1 4 9 -7 18 -14 21 -14 7z"/>
<path d="M590 2651 c8 -5 26 -12 40 -15 l25 -7 -25 15 c-14 9 -32 15 -40 15
-13 0 -13 -1 0 -8z"/>
<path d="M3010 3040 l0 -90 -50 0 -50 0 0 -75 0 -75 50 0 50 0 0 -182 c0 -193
6 -235 43 -289 38 -57 80 -74 177 -73 56 0 98 6 123 17 l37 16 0 81 0 81 -29
-22 c-43 -32 -132 -32 -164 -1 -21 21 -22 32 -25 197 l-3 175 90 0 91 0 0 75
0 75 -90 0 -90 0 0 90 0 90 -80 0 -80 0 0 -90z"/>
<path d="M1290 2951 c-14 -4 -40 -15 -57 -24 -41 -21 -43 -21 -43 3 0 19 -5
21 -77 18 l-78 -3 -3 -467 -2 -468 83 0 83 0 -4 131 -4 131 33 -8 c19 -5 72
-9 119 -9 88 1 130 15 202 68 36 27 93 111 109 162 l12 40 13 -47 c54 -183
261 -273 466 -203 63 22 141 93 173 158 92 189 27 410 -143 494 -51 25 -68 28
-157 28 -81 0 -109 -4 -148 -22 -89 -41 -146 -100 -183 -191 -18 -43 -24 -50
-24 -31 0 38 -57 144 -93 175 -18 15 -51 36 -75 46 -47 21 -163 32 -202 19z
m137 -164 c18 -12 42 -40 55 -62 48 -86 19 -245 -55 -299 -38 -28 -169 -30
-210 -3 l-27 17 0 153 c0 154 2 161 32 186 57 44 147 48 205 8z m660 7 c47
-23 81 -72 95 -135 30 -144 -45 -259 -169 -259 -120 0 -193 78 -193 205 0 90
40 162 105 191 42 18 120 17 162 -2z"/>
<path d="M2530 2944 c-103 -28 -162 -93 -168 -187 -5 -92 23 -141 109 -184 37
-19 93 -37 134 -43 93 -14 139 -37 143 -71 2 -19 -4 -33 -24 -48 -55 -44 -261
-16 -333 44 l-29 25 -7 -67 c-4 -38 -7 -75 -8 -83 -5 -41 181 -87 308 -77 93
8 137 23 187 66 49 42 68 84 68 151 0 106 -70 177 -198 200 -169 30 -219 64
-174 119 40 51 186 45 261 -10 l40 -28 20 55 c28 72 27 79 -11 102 -82 50
-211 65 -318 36z"/>
<path d="M3897 2950 c-101 -26 -197 -105 -240 -198 -18 -39 -22 -65 -22 -152
0 -91 3 -111 23 -148 79 -149 242 -222 432 -194 43 6 94 18 114 26 34 14 36
17 36 64 0 27 3 64 6 82 l7 32 -41 -21 c-79 -40 -245 -46 -313 -11 -43 22 -99
86 -99 113 0 2 100 7 223 11 122 3 235 9 251 13 l28 6 -4 86 c-3 67 -10 97
-30 137 -30 58 -91 116 -145 140 -46 19 -173 27 -226 14z m160 -150 c31 -18
53 -50 67 -97 l7 -23 -165 0 c-91 0 -166 4 -166 8 0 23 61 100 91 115 47 23
126 22 166 -3z"/>
<path d="M3410 2605 l0 -345 85 0 85 0 -2 343 -3 342 -82 3 -83 3 0 -346z"/>
<path d="M1616 2054 c-9 -24 -7 -31 4 -14 11 17 13 1 4 -25 -5 -13 -8 -14 -15
-3 -7 10 -9 9 -9 -4 0 -11 -10 -18 -32 -21 l-33 -4 33 -1 c42 -2 43 -31 2 -56
-30 -17 -31 -17 -49 6 -15 18 -17 26 -8 38 7 8 -6 1 -28 -16 -76 -59 -110 -68
-123 -33 -7 19 -9 19 -21 5 -19 -23 -30 -20 -23 7 4 18 3 20 -9 10 -8 -6 -31
-11 -51 -10 -21 0 -39 -1 -40 -4 -22 -34 -48 -92 -48 -104 0 -31 24 -9 39 36
9 24 20 50 24 57 9 14 58 6 69 -12 5 -8 13 -8 27 1 16 10 20 9 25 -2 9 -23 48
-18 98 14 34 21 49 26 57 18 18 -18 12 -30 -14 -25 -13 3 -22 1 -19 -3 8 -14
62 -10 93 5 25 13 29 13 44 -5 9 -10 24 -19 33 -19 20 0 87 40 80 47 -3 3 -17
-4 -32 -16 -32 -25 -57 -27 -74 -6 -10 13 -10 25 4 66 18 57 21 89 7 89 -5 0
-12 -7 -15 -16z m-423 -214 c-3 -12 -8 -19 -11 -16 -5 6 5 36 12 36 2 0 2 -9
-1 -20z"/>
<path d="M2220 2051 c-6 -12 -9 -27 -6 -34 2 -7 5 -5 5 5 1 9 5 19 10 22 5 4
7 -4 5 -16 -4 -22 -4 -21 6 1 14 32 -4 51 -20 22z"/>
<path d="M2722 2058 c-7 -7 -12 -19 -11 -27 0 -12 3 -10 10 4 8 18 8 17 6 -5
-1 -14 -8 -24 -15 -22 -6 1 -12 -2 -12 -7 0 -6 -15 -12 -32 -14 l-33 -4 33 -1
c25 -2 32 -6 32 -22 0 -24 -56 -62 -85 -58 -12 2 -21 12 -23 26 -3 21 -5 21
-25 7 -29 -20 -87 -20 -87 0 0 8 -4 15 -10 15 -5 0 -10 -9 -10 -20 0 -11 -4
-20 -10 -20 -5 0 -10 5 -10 12 0 6 -10 3 -21 -8 l-22 -19 7 30 c5 24 4 27 -5
12 -6 -10 -9 -24 -6 -30 5 -13 52 -16 64 -4 3 4 24 7 45 7 22 0 48 5 59 10 15
8 19 7 19 -4 0 -27 46 -30 86 -7 l37 22 14 -21 c17 -24 34 -25 73 -5 27 14 29
14 23 -2 -6 -16 -4 -16 16 2 18 16 25 17 41 7 26 -16 61 -15 84 3 11 8 15 15
9 15 -7 0 -15 -4 -18 -10 -8 -13 -62 -13 -71 1 -3 6 -15 8 -26 6 -15 -4 -18
-2 -13 11 4 9 8 32 10 51 2 18 8 38 14 44 14 14 14 6 1 -30 -9 -26 -9 -27 5
-9 19 25 19 56 0 56 -9 0 -20 -20 -30 -55 -25 -83 -92 -125 -116 -71 -17 36 3
64 49 69 l37 4 -35 1 c-35 2 -36 3 -32 37 5 38 2 41 -16 23z"/>
<path d="M1653 1993 c9 -2 23 -2 30 0 6 3 -1 5 -18 5 -16 0 -22 -2 -12 -5z"/>
<path d="M2170 1990 l-35 -7 33 -2 c52 -2 42 -48 -15 -65 -17 -6 -23 -3 -23 8
0 9 -5 16 -11 16 -6 0 -9 9 -6 20 4 17 0 15 -31 -10 -41 -33 -88 -40 -107 -14
-10 15 -15 14 -50 -5 -48 -25 -85 -28 -85 -5 0 11 -6 15 -20 11 -11 -3 -20 0
-20 6 -1 7 -11 -19 -24 -58 -13 -38 -21 -74 -19 -79 8 -12 21 14 28 55 7 42
30 78 41 66 5 -4 2 -12 -6 -17 -21 -14 51 -13 86 0 19 8 29 8 34 0 5 -8 25 -8
66 -1 35 5 63 6 69 0 15 -15 79 -10 103 7 21 14 24 14 41 -7 21 -26 54 -22 92
11 l24 21 -35 -21 c-59 -34 -77 -27 -84 29 -4 33 -2 34 64 44 14 3 3 4 -25 4
-27 0 -66 -3 -85 -7z m-52 -76 c-4 -3 -16 -3 -28 1 -17 5 -19 9 -9 21 11 13
14 13 28 0 8 -9 12 -18 9 -22z m-151 11 c0 -8 -4 -15 -9 -15 -10 0 -11 14 -1
23 9 10 10 9 10 -8z"/>
<path d="M3805 1945 c-22 -19 -44 -35 -49 -35 -5 0 -7 -3 -4 -6 4 -3 15 -1 27
5 13 7 22 8 26 1 8 -13 61 -13 87 1 14 8 23 8 31 0 16 -16 79 -13 105 5 20 14
22 14 22 0 0 -23 43 -30 77 -12 23 12 33 12 42 3 10 -9 11 -8 6 4 -4 10 -2 20
4 24 6 3 11 -2 11 -13 0 -17 5 -18 43 -12 23 3 48 10 55 14 7 4 12 1 12 -9 0
-14 2 -15 21 -1 20 13 24 13 48 -5 31 -22 65 -16 91 17 14 18 14 18 -5 3 -34
-28 -60 -31 -85 -9 -17 15 -27 17 -41 9 -15 -8 -19 -6 -19 6 0 15 -2 15 -22 1
-28 -20 -65 -20 -84 -1 -13 13 -21 11 -62 -12 -53 -29 -82 -26 -82 8 0 20 -1
21 -17 7 -28 -25 -63 -32 -63 -14 0 9 -5 16 -11 16 -7 0 -9 9 -6 21 6 21 6 21
-16 1 -12 -10 -34 -27 -49 -37 -27 -17 -28 -17 -47 6 -14 17 -16 28 -9 37 18
21 4 13 -37 -23z m45 -26 c0 -10 -34 -12 -43 -2 -4 3 -2 12 4 20 9 10 15 10
25 2 8 -6 14 -15 14 -20z m118 -5 c-4 -3 -16 -3 -28 1 -17 5 -19 9 -9 21 11
13 14 13 28 0 8 -9 12 -18 9 -22z"/>
<path d="M3050 1940 c-11 -11 -20 -24 -20 -29 0 -17 20 -23 35 -11 10 9 19 9
35 0 25 -13 70 0 92 27 8 9 -1 7 -22 -6 -19 -11 -40 -21 -47 -21 -16 0 -54 41
-47 52 10 15 -6 8 -26 -12z m10 -21 c-7 -11 -14 -19 -16 -16 -7 7 7 37 17 37
6 0 5 -9 -1 -21z"/>
<path d="M3630 1934 c-44 -24 -96 -33 -85 -15 3 5 0 13 -6 17 -7 4 -9 3 -5 -4
3 -6 -2 -16 -11 -22 -14 -9 -8 -10 32 -7 28 3 58 8 68 12 12 5 17 2 17 -9 0
-19 11 -21 28 -4 9 9 17 8 37 -2 14 -7 28 -10 32 -7 3 4 -1 7 -10 7 -9 0 -22
9 -30 21 l-15 20 -16 -23 c-12 -17 -16 -19 -16 -6 0 9 10 24 22 32 32 23 10
17 -42 -10z"/>
<path d="M3250 1877 c-12 -38 -19 -71 -16 -74 7 -7 24 29 31 69 7 38 30 67 42
54 4 -4 1 -11 -7 -16 -27 -17 59 -11 96 6 19 9 33 18 31 20 -2 3 -17 -2 -33
-11 -36 -19 -74 -19 -74 -1 0 7 -11 16 -24 18 -23 5 -27 0 -46 -65z"/>
<path d="M3491 1934 c-1 -12 -8 -38 -17 -59 -8 -20 -14 -47 -12 -59 3 -15 8
-8 17 24 7 25 19 58 27 73 7 15 10 25 5 22 -5 -3 -12 1 -14 7 -3 7 -6 3 -6 -8z"/>
</g>
</svg>
